<svg xmlns="http://www.w3.org/2000/svg" viewBox="283.93 159.34 217.21 217.21">
<rect x="325" y="175" width="70" height="92" rx="4" fill="#FFFFFF" stroke="#1a1a1a" stroke-width="4"/>
<rect x="334" y="185" width="22" height="26" rx="2" fill="#FFFFFF" stroke="#1a1a1a" stroke-width="3"/>
<circle cx="345" cy="194" r="6" fill="#FFFFFF" stroke="#1a1a1a" stroke-width="0"/>
<path d="M 337.0 209.0 q 8 -10 16 0" fill="none" stroke="#1a1a1a" stroke-width="3" stroke-linejoin="round"/>
<line x1="363" y1="191" x2="385" y2="191" stroke="#1a1a1a" stroke-width="4" stroke-linecap="round"/>
<line x1="363" y1="201" x2="377" y2="201" stroke="#1a1a1a" stroke-width="3" stroke-linecap="round"/>
<line x1="335" y1="221" x2="385" y2="221" stroke="#1a1a1a" stroke-width="3" stroke-linecap="round"/>
<line x1="335" y1="235" x2="385" y2="235" stroke="#1a1a1a" stroke-width="3" stroke-linecap="round"/>
<line x1="335" y1="249" x2="385" y2="249" stroke="#1a1a1a" stroke-width="3" stroke-linecap="round"/>
<line x1="335" y1="263" x2="385" y2="263" stroke="#1a1a1a" stroke-width="3" stroke-linecap="round"/>
<line x1="398" y1="221" x2="452" y2="221" stroke="#1a1a1a" stroke-width="15.0" stroke-linecap="round"/><line x1="452" y1="221" x2="434" y2="207" stroke="#1a1a1a" stroke-width="15.0" stroke-linecap="round"/><line x1="452" y1="221" x2="434" y2="235" stroke="#1a1a1a" stroke-width="15.0" stroke-linecap="round"/><line x1="398" y1="221" x2="452" y2="221" stroke="#1a1a1a" stroke-width="9.5" stroke-linecap="round"/>
<line x1="452" y1="221" x2="434" y2="207" stroke="#1a1a1a" stroke-width="9.5" stroke-linecap="round"/>
<line x1="452" y1="221" x2="434" y2="235" stroke="#1a1a1a" stroke-width="9.5" stroke-linecap="round"/>
<rect x="384" y="250" width="76" height="110" rx="4" fill="#FFFFFF" stroke="#1a1a1a" stroke-width="4"/>
<rect x="384" y="250" width="76" height="16" rx="0" fill="#FFFFFF" stroke="#1a1a1a" stroke-width="0"/>
<line x1="394" y1="286" x2="450" y2="286" stroke="#1a1a1a" stroke-width="3" stroke-linecap="round"/>
<line x1="394" y1="300" x2="450" y2="300" stroke="#1a1a1a" stroke-width="3" stroke-linecap="round"/>
<line x1="394" y1="314" x2="440" y2="314" stroke="#1a1a1a" stroke-width="3" stroke-linecap="round"/>
</svg>
