<svg xmlns="http://www.w3.org/2000/svg" viewBox="0 0 512 512" data-copyright="© 2026 Sensory App House"><!--SAH-COPYRIGHT © 2026 Sensory App House. All rights reserved.--><metadata id="sah-copyright"><rdf:RDF xmlns:rdf="http://www.w3.org/1999/02/22-rdf-syntax-ns#" xmlns:dc="http://purl.org/dc/elements/1.1/" xmlns:cc="http://creativecommons.org/ns#"><cc:Work rdf:about=""><dc:rights><cc:Agent><dc:title>© 2026 Sensory App House. All rights reserved.</dc:title></cc:Agent></dc:rights><dc:creator><cc:Agent><dc:title>Sensory App House (PiCom)</dc:title></cc:Agent></dc:creator><dc:date>2026</dc:date></cc:Work></rdf:RDF></metadata><g data-fit="1" transform="translate(44.00 80.55) scale(1.4621)">
  <!-- Night sky background panel -->
  <rect x="26" y="20" width="238" height="176" rx="6" fill="#1a1a1a" stroke="#1a1a1a" stroke-width="5.55" stroke-linejoin="round"/>
  <!-- Building façade body -->
  <rect x="50" y="80" width="190" height="116" rx="4" fill="#FFFFFF" stroke="#1a1a1a" stroke-width="5.55" stroke-linejoin="round"/>
  <!-- Roof ledge -->
  <rect x="40" y="72" width="210" height="16" rx="3" fill="#FFFFFF" stroke="#1a1a1a" stroke-width="5.55" stroke-linejoin="round"/>
  <!-- Neon light strip top purple -->
  <rect x="54" y="84" width="182" height="10" rx="3" fill="#FFFFFF" stroke="#1a1a1a" stroke-width="3.33" stroke-linejoin="round"/>
  <!-- Door arch -->
  <rect x="114" y="148" width="62" height="48" rx="6" fill="#1a1a1a" stroke="#1a1a1a" stroke-width="5.55" stroke-linejoin="round"/>
  <!-- Door surround neon pink -->
  <rect x="110" y="144" width="70" height="52" rx="8" fill="none" stroke="#1a1a1a" stroke-width="5.55"/>
  <!-- Window left -->
  <rect x="62" y="100" width="44" height="36" rx="4" fill="#1a1a1a" stroke="#1a1a1a" stroke-width="4.45" stroke-linejoin="round"/>
  <!-- Window right -->
  <rect x="184" y="100" width="44" height="36" rx="4" fill="#1a1a1a" stroke="#1a1a1a" stroke-width="4.45" stroke-linejoin="round"/>
  <!-- Window light left glow (flat amber) -->
  <rect x="66" y="104" width="36" height="28" rx="3" fill="#FFFFFF" stroke="#1a1a1a" stroke-width="2.22"/>
  <!-- Window light right glow (flat cyan) -->
  <rect x="188" y="104" width="36" height="28" rx="3" fill="#FFFFFF" stroke="#1a1a1a" stroke-width="2.22"/>
  <!-- Velvet rope barrier posts -->
  <rect x="68" y="182" width="8" height="30" rx="3" fill="#FFFFFF" stroke="#1a1a1a" stroke-width="3.33" stroke-linejoin="round"/>
  <rect x="98" y="188" width="8" height="24" rx="3" fill="#FFFFFF" stroke="#1a1a1a" stroke-width="3.33" stroke-linejoin="round"/>
  <rect x="184" y="182" width="8" height="30" rx="3" fill="#FFFFFF" stroke="#1a1a1a" stroke-width="3.33" stroke-linejoin="round"/>
  <rect x="214" y="188" width="8" height="24" rx="3" fill="#FFFFFF" stroke="#1a1a1a" stroke-width="3.33" stroke-linejoin="round"/>
  <!-- Rope left segment (curved via path) -->
  <path d="M76 192 Q90 202 102 196" fill="none" stroke="#1a1a1a" stroke-width="5.55" stroke-linecap="round"/>
  <!-- Rope right segment -->
  <path d="M188 192 Q200 202 218 196" fill="none" stroke="#1a1a1a" stroke-width="5.55" stroke-linecap="round"/>
  <!-- Disco ball (circle with grid lines) -->
  <circle cx="145" cy="46" r="24" fill="#FFFFFF" stroke="#1a1a1a" stroke-width="5.55"/>
  <!-- Disco ball highlights (flat squares) -->
  <rect x="126" y="36" width="8" height="7" rx="1" fill="#FFFFFF" stroke="#1a1a1a" stroke-width="2.22"/>
  <rect x="137" y="30" width="8" height="7" rx="1" fill="#FFFFFF" stroke="#1a1a1a" stroke-width="2.22"/>
  <rect x="148" y="36" width="8" height="7" rx="1" fill="#FFFFFF" stroke="#1a1a1a" stroke-width="2.22"/>
  <rect x="130" y="46" width="8" height="7" rx="1" fill="#FFFFFF" stroke="#1a1a1a" stroke-width="2.22"/>
  <rect x="142" y="46" width="8" height="7" rx="1" fill="#FFFFFF" stroke="#1a1a1a" stroke-width="2.22"/>
  <rect x="154" y="46" width="8" height="7" rx="1" fill="#FFFFFF" stroke="#1a1a1a" stroke-width="2.22"/>
  <rect x="134" y="56" width="8" height="7" rx="1" fill="#FFFFFF" stroke="#1a1a1a" stroke-width="2.22"/>
  <rect x="147" y="56" width="8" height="7" rx="1" fill="#FFFFFF" stroke="#1a1a1a" stroke-width="2.22"/>
  <!-- Disco ball string -->
  <line x1="145" y1="20" x2="145" y2="22" stroke="#1a1a1a" stroke-width="4.45" stroke-linecap="round"/>
  <!-- Light beams from disco ball (coloured rays) -->
  <line x1="128" y1="62" x2="70" y2="92" stroke="#1a1a1a" stroke-width="4.45" stroke-linecap="round"/>
  <line x1="145" y1="70" x2="145" y2="80" stroke="#1a1a1a" stroke-width="4.45" stroke-linecap="round"/>
  <line x1="162" y1="62" x2="215" y2="90" stroke="#1a1a1a" stroke-width="4.45" stroke-linecap="round"/>
  <line x1="120" y1="54" x2="56" y2="68" stroke="#1a1a1a" stroke-width="4.45" stroke-linecap="round"/>
  <line x1="168" y1="54" x2="228" y2="66" stroke="#1a1a1a" stroke-width="4.45" stroke-linecap="round"/>
</g></svg>