<svg xmlns="http://www.w3.org/2000/svg" viewBox="0 0 512 512" data-copyright="© 2026 Sensory App House"><!--SAH-COPYRIGHT © 2026 Sensory App House. All rights reserved.--><metadata id="sah-copyright"><rdf:RDF xmlns:rdf="http://www.w3.org/1999/02/22-rdf-syntax-ns#" xmlns:dc="http://purl.org/dc/elements/1.1/" xmlns:cc="http://creativecommons.org/ns#"><cc:Work rdf:about=""><dc:rights><cc:Agent><dc:title>© 2026 Sensory App House. All rights reserved.</dc:title></cc:Agent></dc:rights><dc:creator><cc:Agent><dc:title>Sensory App House (PiCom)</dc:title></cc:Agent></dc:creator><dc:date>2026</dc:date></cc:Work></rdf:RDF></metadata><g data-fit="1" transform="translate(256 256) scale(1.1920) translate(-277.50 -241.00)">
<rect x="118.0" y="196.0" width="276.0" height="230.0" rx="18" fill="#FFFFFF" stroke="#1a1a1a" stroke-width="7"/>
<rect x="118.0" y="196.0" width="276.0" height="30.0" rx="18" fill="#FFFFFF" stroke="#1a1a1a" stroke-width="0"/>
<rect x="118.0" y="210.0" width="276.0" height="16.0" rx="0" fill="#FFFFFF" stroke="#1a1a1a" stroke-width="0"/>
<circle cx="212.0" cy="312.0" r="66.0" fill="#1a1a1a" stroke="#1a1a1a" stroke-width="4"/>
<circle cx="212.0" cy="312.0" r="56.0" fill="#FFFFFF" stroke="#1a1a1a" stroke-width="0"/>
<circle cx="212.0" cy="312.0" r="16.0" fill="none" stroke="#1a1a1a" stroke-width="6"/>
<circle cx="212.0" cy="312.0" r="30.0" fill="none" stroke="#1a1a1a" stroke-width="6"/>
<circle cx="212.0" cy="312.0" r="44.0" fill="none" stroke="#1a1a1a" stroke-width="6"/>
<rect x="296.0" y="250.0" width="80.0" height="50.0" rx="6" fill="#FFFFFF" stroke="#1a1a1a" stroke-width="4"/>
<line x1="306" y1="256" x2="306" y2="268" stroke="#1a1a1a" stroke-width="3" stroke-linecap="round"/>
<line x1="322" y1="256" x2="322" y2="268" stroke="#1a1a1a" stroke-width="3" stroke-linecap="round"/>
<line x1="338" y1="256" x2="338" y2="268" stroke="#1a1a1a" stroke-width="3" stroke-linecap="round"/>
<line x1="354" y1="256" x2="354" y2="268" stroke="#1a1a1a" stroke-width="3" stroke-linecap="round"/>
<line x1="370" y1="256" x2="370" y2="268" stroke="#1a1a1a" stroke-width="3" stroke-linecap="round"/>
<line x1="330" y1="254" x2="330" y2="296" stroke="#1a1a1a" stroke-width="4" stroke-linecap="round"/>
<circle cx="314.0" cy="360.0" r="20.0" fill="#1a1a1a" stroke="#1a1a1a" stroke-width="3"/>
<line x1="314" y1="360" x2="314" y2="346" stroke="#1a1a1a" stroke-width="4" stroke-linecap="round"/>
<circle cx="360.0" cy="360.0" r="20.0" fill="#1a1a1a" stroke="#1a1a1a" stroke-width="3"/>
<line x1="360" y1="360" x2="360" y2="346" stroke="#1a1a1a" stroke-width="4" stroke-linecap="round"/>
<line x1="360" y1="196" x2="392" y2="120" stroke="#1a1a1a" stroke-width="7" stroke-linecap="round"/>
<circle cx="392.0" cy="120.0" r="9.0" fill="#FFFFFF" stroke="#1a1a1a" stroke-width="0"/>
<path d="M 374 102 A 26 26 0 0 1 410 102" fill="none" stroke="#1a1a1a" stroke-width="6"/>
<path d="M 360 88 A 46 46 0 0 1 424 88" fill="none" stroke="#1a1a1a" stroke-width="6"/>
<path d="M 346 74 A 66 66 0 0 1 438 74" fill="none" stroke="#1a1a1a" stroke-width="6"/>
</g></svg>
