<svg xmlns="http://www.w3.org/2000/svg" viewBox="0 0 512 512" data-copyright="© 2026 Sensory App House"><!--SAH-COPYRIGHT © 2026 Sensory App House. All rights reserved.--><metadata id="sah-copyright"><rdf:RDF xmlns:rdf="http://www.w3.org/1999/02/22-rdf-syntax-ns#" xmlns:dc="http://purl.org/dc/elements/1.1/" xmlns:cc="http://creativecommons.org/ns#"><cc:Work rdf:about=""><dc:rights><cc:Agent><dc:title>© 2026 Sensory App House. All rights reserved.</dc:title></cc:Agent></dc:rights><dc:creator><cc:Agent><dc:title>Sensory App House (PiCom)</dc:title></cc:Agent></dc:creator><dc:date>2026</dc:date></cc:Work></rdf:RDF></metadata><g data-fit="1" transform="translate(44.00 80.55) scale(1.4621)">
  <polygon points="145,15 155,55 135,55" fill="#FFFFFF" stroke="#1a1a1a" stroke-width="4.45" stroke-linejoin="round"/>
  <polygon points="145,225 155,185 135,185" fill="#FFFFFF" stroke="#1a1a1a" stroke-width="4.45" stroke-linejoin="round"/>
  <polygon points="20,120 60,110 60,130" fill="#FFFFFF" stroke="#1a1a1a" stroke-width="4.45" stroke-linejoin="round"/>
  <polygon points="270,120 230,110 230,130" fill="#FFFFFF" stroke="#1a1a1a" stroke-width="4.45" stroke-linejoin="round"/>
  <polygon points="55,35 90,60 72,75" fill="#FFFFFF" stroke="#1a1a1a" stroke-width="4.45" stroke-linejoin="round"/>
  <polygon points="235,35 200,60 218,75" fill="#FFFFFF" stroke="#1a1a1a" stroke-width="4.45" stroke-linejoin="round"/>
  <polygon points="55,205 90,180 72,165" fill="#FFFFFF" stroke="#1a1a1a" stroke-width="4.45" stroke-linejoin="round"/>
  <polygon points="235,205 200,180 218,165" fill="#FFFFFF" stroke="#1a1a1a" stroke-width="4.45" stroke-linejoin="round"/>
  <circle cx="145" cy="120" r="70" fill="#FFFFFF" stroke="#1a1a1a" stroke-width="5.93"/>
  <circle cx="120" cy="108" r="6" fill="#1a1a1a" stroke="#1a1a1a" stroke-width="2.96"/>
  <circle cx="170" cy="108" r="6" fill="#1a1a1a" stroke="#1a1a1a" stroke-width="2.96"/>
  <path d="M 115 140 Q 145 165 175 140" fill="none" stroke="#1a1a1a" stroke-width="5.93" stroke-linecap="round"/>
  <circle cx="105" cy="135" r="6" fill="#FFFFFF" stroke="#1a1a1a" stroke-width="2.96"/>
  <circle cx="185" cy="135" r="6" fill="#FFFFFF" stroke="#1a1a1a" stroke-width="2.96"/>
</g></svg>