<svg xmlns="http://www.w3.org/2000/svg" viewBox="0 0 512 512" data-copyright="© 2026 Sensory App House"><!--SAH-COPYRIGHT © 2026 Sensory App House. All rights reserved.--><metadata id="sah-copyright"><rdf:RDF xmlns:rdf="http://www.w3.org/1999/02/22-rdf-syntax-ns#" xmlns:dc="http://purl.org/dc/elements/1.1/" xmlns:cc="http://creativecommons.org/ns#"><cc:Work rdf:about=""><dc:rights><cc:Agent><dc:title>© 2026 Sensory App House. All rights reserved.</dc:title></cc:Agent></dc:rights><dc:creator><cc:Agent><dc:title>Sensory App House (PiCom)</dc:title></cc:Agent></dc:creator><dc:date>2026</dc:date></cc:Work></rdf:RDF></metadata><g data-fit="1" transform="translate(44.00 80.55) scale(1.4621)">
  <!-- Qanun: flat trapezoid box zither, many parallel strings, row of levers (mandal) on left side -->

  <!-- Main trapezoid body: wider on right, narrower on left -->
  <polygon points="30,55 260,55 260,205 30,185" fill="#FFFFFF" stroke="#1a1a1a" stroke-width="11.11" stroke-linejoin="round"/>
  <!-- Inner face (slightly inset) -->
  <polygon points="38,63 252,63 252,197 38,177" fill="#FFFFFF" stroke="#1a1a1a" stroke-width="4.45"/>

  <!-- Parallel strings across the top surface (many close strings) -->
  <line x1="52" y1="70" x2="252" y2="70" stroke="#1a1a1a" stroke-width="4.45"/>
  <line x1="52" y1="76" x2="252" y2="76" stroke="#1a1a1a" stroke-width="4.45"/>
  <line x1="52" y1="82" x2="252" y2="82" stroke="#1a1a1a" stroke-width="4.45"/>
  <line x1="52" y1="88" x2="252" y2="88" stroke="#1a1a1a" stroke-width="4.45"/>
  <line x1="52" y1="94" x2="252" y2="94" stroke="#1a1a1a" stroke-width="4.45"/>
  <line x1="52" y1="100" x2="252" y2="100" stroke="#1a1a1a" stroke-width="4.45"/>
  <line x1="52" y1="106" x2="252" y2="106" stroke="#1a1a1a" stroke-width="4.45"/>
  <line x1="52" y1="112" x2="252" y2="112" stroke="#1a1a1a" stroke-width="4.45"/>
  <line x1="52" y1="118" x2="252" y2="118" stroke="#1a1a1a" stroke-width="4.45"/>
  <line x1="52" y1="124" x2="252" y2="124" stroke="#1a1a1a" stroke-width="4.45"/>
  <line x1="52" y1="130" x2="252" y2="130" stroke="#1a1a1a" stroke-width="4.45"/>
  <line x1="52" y1="136" x2="252" y2="136" stroke="#1a1a1a" stroke-width="4.45"/>
  <line x1="52" y1="142" x2="252" y2="142" stroke="#1a1a1a" stroke-width="4.45"/>
  <line x1="52" y1="148" x2="252" y2="148" stroke="#1a1a1a" stroke-width="4.45"/>
  <line x1="52" y1="154" x2="252" y2="154" stroke="#1a1a1a" stroke-width="4.45"/>
  <line x1="52" y1="160" x2="252" y2="160" stroke="#1a1a1a" stroke-width="4.45"/>
  <line x1="52" y1="166" x2="252" y2="166" stroke="#1a1a1a" stroke-width="4.45"/>
  <line x1="52" y1="172" x2="252" y2="172" stroke="#1a1a1a" stroke-width="4.45"/>
  <line x1="52" y1="178" x2="252" y2="178" stroke="#1a1a1a" stroke-width="4.45"/>
  <line x1="52" y1="184" x2="252" y2="184" stroke="#1a1a1a" stroke-width="4.45"/>

  <!-- String bridge bar on right side -->
  <rect x="248" y="62" width="8" height="137" rx="2" fill="#FFFFFF" stroke="#1a1a1a" stroke-width="4.45"/>

  <!-- Left side lever panel (mandal levers — row of small toggles) -->
  <rect x="30" y="63" width="22" height="114" rx="3" fill="#FFFFFF" stroke="#1a1a1a" stroke-width="6.67"/>
  <!-- Individual levers (small rectangles) -->
  <rect x="33" y="68" width="16" height="6" rx="2" fill="#FFFFFF" stroke="#1a1a1a" stroke-width="4.45"/>
  <rect x="33" y="79" width="16" height="6" rx="2" fill="#FFFFFF" stroke="#1a1a1a" stroke-width="4.45"/>
  <rect x="33" y="90" width="16" height="6" rx="2" fill="#FFFFFF" stroke="#1a1a1a" stroke-width="4.45"/>
  <rect x="33" y="101" width="16" height="6" rx="2" fill="#FFFFFF" stroke="#1a1a1a" stroke-width="4.45"/>
  <rect x="33" y="112" width="16" height="6" rx="2" fill="#FFFFFF" stroke="#1a1a1a" stroke-width="4.45"/>
  <rect x="33" y="123" width="16" height="6" rx="2" fill="#FFFFFF" stroke="#1a1a1a" stroke-width="4.45"/>
  <rect x="33" y="134" width="16" height="6" rx="2" fill="#FFFFFF" stroke="#1a1a1a" stroke-width="4.45"/>
  <rect x="33" y="145" width="16" height="6" rx="2" fill="#FFFFFF" stroke="#1a1a1a" stroke-width="4.45"/>
  <rect x="33" y="156" width="16" height="6" rx="2" fill="#FFFFFF" stroke="#1a1a1a" stroke-width="4.45"/>
  <rect x="33" y="167" width="16" height="6" rx="2" fill="#FFFFFF" stroke="#1a1a1a" stroke-width="4.45"/>

  <!-- Sound holes on body -->
  <circle cx="155" cy="215" r="10" fill="#1a1a1a" stroke="#1a1a1a" stroke-width="6.67"/>
  <circle cx="135" cy="215" r="7" fill="#1a1a1a" stroke="#1a1a1a" stroke-width="4.45"/>
  <circle cx="175" cy="215" r="7" fill="#1a1a1a" stroke="#1a1a1a" stroke-width="4.45"/>
</g><g transform="translate(360 8) scale(0.2812)"><path d="M 256.0,56.0 L 281.0,212.7 L 429.2,156.0 L 306.0,256.0 L 429.2,356.0 L 281.0,299.3 L 256.0,456.0 L 231.0,299.3 L 82.8,356.0 L 206.0,256.0 L 82.8,156.0 L 231.0,212.7 Z" fill="#ffffff" stroke="#1a1a1a" stroke-width="14" stroke-linejoin="round"/></g></svg>