<svg xmlns="http://www.w3.org/2000/svg" viewBox="0 0 512 512" data-copyright="© 2026 Sensory App House"><!--SAH-COPYRIGHT © 2026 Sensory App House. All rights reserved.--><metadata id="sah-copyright"><rdf:RDF xmlns:rdf="http://www.w3.org/1999/02/22-rdf-syntax-ns#" xmlns:dc="http://purl.org/dc/elements/1.1/" xmlns:cc="http://creativecommons.org/ns#"><cc:Work rdf:about=""><dc:rights><cc:Agent><dc:title>© 2026 Sensory App House. All rights reserved.</dc:title></cc:Agent></dc:rights><dc:creator><cc:Agent><dc:title>Sensory App House (PiCom)</dc:title></cc:Agent></dc:creator><dc:date>2026</dc:date></cc:Work></rdf:RDF></metadata><g data-fit="1" transform="translate(256 256) scale(1.2481) translate(-256.50 -297.00)">
<circle cx="120.0" cy="250.0" r="9.0" fill="#FFFFFF" stroke="#1a1a1a" stroke-width="0"/>
<circle cx="96.0" cy="300.0" r="9.0" fill="#FFFFFF" stroke="#1a1a1a" stroke-width="0"/>
<circle cx="110.0" cy="356.0" r="9.0" fill="#FFFFFF" stroke="#1a1a1a" stroke-width="0"/>
<circle cx="392.0" cy="250.0" r="9.0" fill="#FFFFFF" stroke="#1a1a1a" stroke-width="0"/>
<circle cx="416.0" cy="300.0" r="9.0" fill="#FFFFFF" stroke="#1a1a1a" stroke-width="0"/>
<circle cx="402.0" cy="356.0" r="9.0" fill="#FFFFFF" stroke="#1a1a1a" stroke-width="0"/>
<path d="M 150 330 Q 256 470 362 330 Q 410 322 362 308 Q 256 332 150 308 Q 102 322 150 330 Z" fill="#FFFFFF" stroke="#1a1a1a" stroke-width="7" stroke-linejoin="round"/>
<path d="M 150 308 Q 256 332 362 308" fill="none" stroke="#1a1a1a" stroke-width="7" stroke-linejoin="round"/>
<path d="M 178 352 Q 256 432 334 352" fill="none" stroke="#1a1a1a" stroke-width="8" stroke-linejoin="round"/>
<line x1="256" y1="308" x2="256" y2="288" stroke="#1a1a1a" stroke-width="6" stroke-linecap="round"/>
<path d="M 256 140 C 196 224 220 286 256 300 C 292 286 316 224 256 140 Z" fill="#FFFFFF" stroke="#1a1a1a" stroke-width="5" stroke-linejoin="round"/>
<path d="M 256 176 C 218 240 232 282 256 294 C 280 282 294 240 256 176 Z" fill="#FFFFFF" stroke="#1a1a1a" stroke-width="0" stroke-linejoin="round"/>
<path d="M 256 216 C 238 256 244 282 256 290 C 268 282 274 256 256 216 Z" fill="#FFFFFF" stroke="#1a1a1a" stroke-width="0" stroke-linejoin="round"/>
</g></svg>
