<svg xmlns="http://www.w3.org/2000/svg" viewBox="0 0 512 512" data-copyright="© 2026 Sensory App House"><!--SAH-COPYRIGHT © 2026 Sensory App House. All rights reserved.--><metadata id="sah-copyright"><rdf:RDF xmlns:rdf="http://www.w3.org/1999/02/22-rdf-syntax-ns#" xmlns:dc="http://purl.org/dc/elements/1.1/" xmlns:cc="http://creativecommons.org/ns#"><cc:Work rdf:about=""><dc:rights><cc:Agent><dc:title>© 2026 Sensory App House. All rights reserved.</dc:title></cc:Agent></dc:rights><dc:creator><cc:Agent><dc:title>Sensory App House (PiCom)</dc:title></cc:Agent></dc:creator><dc:date>2026</dc:date></cc:Work></rdf:RDF></metadata><g data-fit="1" transform="translate(256 256) scale(1.8466) translate(-288.00 -238.00)">
<rect x="181.0" y="133.0" width="150.0" height="210.0" rx="4" fill="#FFFFFF" stroke="#1a1a1a" stroke-width="4"/>
<ellipse cx="256.0" cy="133.0" rx="83.0" ry="15.0" fill="#FFFFFF" stroke="#1a1a1a" stroke-width="4"/>
<ellipse cx="256.0" cy="133.0" rx="83.0" ry="8.0" fill="#FFFFFF" stroke="#1a1a1a" stroke-width="2"/>
<ellipse cx="256.0" cy="343.0" rx="83.0" ry="15.0" fill="#FFFFFF" stroke="#1a1a1a" stroke-width="4"/>
<ellipse cx="256.0" cy="343.0" rx="83.0" ry="8.0" fill="#FFFFFF" stroke="#1a1a1a" stroke-width="2"/>
<line x1="203" y1="163" x2="283" y2="163" stroke="#1a1a1a" stroke-width="5" stroke-linecap="round"/>
<line x1="203" y1="194" x2="309" y2="194" stroke="#1a1a1a" stroke-width="5" stroke-linecap="round"/>
<line x1="203" y1="225" x2="309" y2="225" stroke="#1a1a1a" stroke-width="5" stroke-linecap="round"/>
<line x1="203" y1="255" x2="283" y2="255" stroke="#1a1a1a" stroke-width="5" stroke-linecap="round"/>
<line x1="203" y1="286" x2="309" y2="286" stroke="#1a1a1a" stroke-width="5" stroke-linecap="round"/>
<line x1="203" y1="317" x2="309" y2="317" stroke="#1a1a1a" stroke-width="5" stroke-linecap="round"/>
<line x1="300" y1="330" x2="384" y2="168" stroke="#1a1a1a" stroke-width="7" stroke-linecap="round"/>
<path d="M 384 168 Q 418 178 390 226 Q 414 204 370 244 Q 390 212 366 198 Z" fill="#FFFFFF" stroke="#1a1a1a" stroke-width="3" stroke-linejoin="round"/>
<line x1="300" y1="330" x2="294" y2="342" stroke="#1a1a1a" stroke-width="7" stroke-linecap="round"/>
</g></svg>
