<svg xmlns="http://www.w3.org/2000/svg" viewBox="0 0 512 512" data-copyright="© 2026 Sensory App House"><!--SAH-COPYRIGHT © 2026 Sensory App House. All rights reserved.--><metadata id="sah-copyright"><rdf:RDF xmlns:rdf="http://www.w3.org/1999/02/22-rdf-syntax-ns#" xmlns:dc="http://purl.org/dc/elements/1.1/" xmlns:cc="http://creativecommons.org/ns#"><cc:Work rdf:about=""><dc:rights><cc:Agent><dc:title>© 2026 Sensory App House. All rights reserved.</dc:title></cc:Agent></dc:rights><dc:creator><cc:Agent><dc:title>Sensory App House (PiCom)</dc:title></cc:Agent></dc:creator><dc:date>2026</dc:date></cc:Work></rdf:RDF></metadata><g data-fit="1" transform="translate(256 256) scale(1.3779) translate(-256.00 -295.50)">
<rect x="180" y="288" width="152" height="168" rx="16" fill="#FFFFFF" stroke="#1a1a1a" stroke-width="6"/>
<line x1="212" y1="320" x2="212" y2="446" stroke="#1a1a1a" stroke-width="3" stroke-linecap="round"/>
<line x1="256" y1="320" x2="256" y2="446" stroke="#1a1a1a" stroke-width="3" stroke-linecap="round"/>
<line x1="300" y1="320" x2="300" y2="446" stroke="#1a1a1a" stroke-width="3" stroke-linecap="round"/>
<ellipse cx="256" cy="288" rx="76" ry="18" fill="#FFFFFF" stroke="#1a1a1a" stroke-width="5"/>
<ellipse cx="256" cy="286" rx="56" ry="12" fill="#FFFFFF" stroke="#1a1a1a" stroke-width="3"/>
<path d="M 198 280 L 314 280 L 290 230 L 222 230 Z" fill="#FFFFFF" stroke="#1a1a1a" stroke-width="6" stroke-linejoin="round"/>
<line x1="198" y1="280" x2="222" y2="230" stroke="#1a1a1a" stroke-width="4" stroke-linecap="round"/>
<g transform="rotate(-14 256 168)">
<rect x="218" y="140" width="76" height="46" rx="16" fill="#FFFFFF" stroke="#1a1a1a" stroke-width="5"/>
<line x1="238" y1="140" x2="238" y2="186" stroke="#1a1a1a" stroke-width="2" stroke-linecap="round"/>
<line x1="272" y1="140" x2="272" y2="186" stroke="#1a1a1a" stroke-width="2" stroke-linecap="round"/>
<path d="M 294 158 q 18 -4 16 10 q -2 12 -16 8 Z" fill="#FFFFFF" stroke="#1a1a1a" stroke-width="4" stroke-linejoin="round"/>
</g>
<line x1="258" y1="200" x2="258" y2="248" stroke="#1a1a1a" stroke-width="20.0" stroke-linecap="round"/><line x1="258" y1="200" x2="258" y2="248" stroke="#1a1a1a" stroke-width="14.5" stroke-linecap="round"/>
<polygon points="258.0,279.0 239.2,246.5 276.9,246.5" fill="#FFFFFF" stroke="#1a1a1a" stroke-width="6" stroke-linejoin="round"/>
</g></svg>
