<svg xmlns="http://www.w3.org/2000/svg" viewBox="0 0 512 512" data-copyright="© 2026 Sensory App House"><g transform="translate(0.000,21.811) scale(0.9574)"><!--SAH-COPYRIGHT © 2026 Sensory App House. All rights reserved.--><metadata id="sah-copyright"><rdf:RDF xmlns:rdf="http://www.w3.org/1999/02/22-rdf-syntax-ns#" xmlns:dc="http://purl.org/dc/elements/1.1/" xmlns:cc="http://creativecommons.org/ns#"><cc:Work rdf:about=""><dc:rights><cc:Agent><dc:title>© 2026 Sensory App House. All rights reserved.</dc:title></cc:Agent></dc:rights><dc:creator><cc:Agent><dc:title>Sensory App House (PiCom)</dc:title></cc:Agent></dc:creator><dc:date>2026</dc:date></cc:Work></rdf:RDF></metadata><g data-fit="1" transform="translate(44.00 80.55) scale(1.4621)"><rect x="60" y="30" width="170" height="160" rx="14" fill="#FFFFFF" stroke="#1a1a1a" stroke-width="7.40"></rect><rect x="72" y="42" width="146" height="120" fill="#FFFFFF" stroke="#1a1a1a" stroke-width="4.45"></rect><rect x="72" y="42" width="146" height="118" fill="#1a1a1a" stroke="#1a1a1a" stroke-width="0.00" opacity="0.85"></rect><path d="M 72,42 L 218,42 L 218,55 L 72,55 Z" fill="#FFFFFF" stroke="#1a1a1a" stroke-width="0.00" opacity="0.6"></path><path d="M 145,165 L 145,200 L 168,200 Q 172,205 168,210 L 122,210 Q 118,205 122,200 L 145,200" fill="#FFFFFF" stroke="#1a1a1a" stroke-width="7.40" stroke-linejoin="round"></path><rect x="135" y="158" width="20" height="10" fill="#FFFFFF" stroke="#1a1a1a" stroke-width="4.45"></rect><path d="M 118,210 L 172,210 L 170,222 L 120,222 Z" fill="#FFFFFF" stroke="#1a1a1a" stroke-width="5.93"></path><text x="145" y="115" text-anchor="middle" font-family="sans-serif" font-size="14" font-weight="900" fill="#FFFFFF">COLD</text><text x="145" y="135" text-anchor="middle" font-family="sans-serif" font-size="14" font-weight="900" fill="#FFFFFF">BREW</text><circle cx="78" cy="78" r="5" fill="#FFFFFF" stroke="#1a1a1a" stroke-width="2.96"></circle><circle cx="78" cy="100" r="4" fill="#FFFFFF" stroke="#1a1a1a" stroke-width="2.96"></circle></g></g><g transform="translate(360 8) scale(0.2812)"><path d="M 256.0,56.0 L 281.0,212.7 L 429.2,156.0 L 306.0,256.0 L 429.2,356.0 L 281.0,299.3 L 256.0,456.0 L 231.0,299.3 L 82.8,356.0 L 206.0,256.0 L 82.8,156.0 L 231.0,212.7 Z" fill="#ffffff" stroke="#1a1a1a" stroke-width="14" stroke-linejoin="round"/></g></svg>